<svg width="25" height="25" viewBox="0 0 25 25" fill="none" xmlns="http://www.w3.org/2000/svg">
<path d="M19.5 11C19.5 12.6811 19.0015 14.3245 18.0675 15.7223C17.1335 17.1202 15.806 18.2096 14.2528 18.853C12.6996 19.4963 10.9906 19.6647 9.34174 19.3367C7.6929 19.0087 6.17834 18.1992 4.9896 17.0104C3.80085 15.8217 2.9913 14.3071 2.66333 12.6583C2.33535 11.0094 2.50368 9.30036 3.14703 7.74719C3.79037 6.19402 4.87984 4.8665 6.27766 3.93251C7.67547 2.99852 9.31886 2.5 11 2.5C13.2543 2.5 15.4164 3.39553 17.0104 4.98959C18.6045 6.58365 19.5 8.74566 19.5 11Z" stroke="#262626" stroke-width="2" stroke-linecap="round" stroke-linejoin="round"/>
<path d="M17.011 17.011L22.5 22.5" stroke="#262626" stroke-width="2" stroke-linecap="round" stroke-linejoin="round"/>
</svg>
