<svg width="338" height="125" viewBox="0 0 338 125" fill="none" xmlns="http://www.w3.org/2000/svg">
<path fill-rule="evenodd" clip-rule="evenodd" d="M31.7469 16.6154C25.5127 19.4418 18.6446 27.356 16.4257 37.1922C13.6785 49.7419 25.0901 55.0557 26.0411 53.3598C27.0977 51.3247 24.0335 50.6463 23.2938 44.0889C22.5542 35.7225 26.2524 26.2254 30.7959 22.1553C31.6412 21.3639 31.6412 22.4945 31.6412 24.4165L31.4299 66.3616C31.4299 75.2934 31.1129 78.1199 30.4789 80.9464C29.8449 83.7728 28.894 85.6949 29.6336 86.4863C30.4789 87.2777 34.1771 85.3557 36.2904 82.19C38.7207 78.2329 39.9886 73.5975 39.8829 68.962C40.0943 62.9698 40.0943 53.4728 40.0943 48.159C40.0943 43.1844 40.1999 28.7127 39.9886 20.0071C39.8829 17.6329 34.3885 15.3717 31.7469 16.6154ZM254.168 58.5605C254.062 62.2915 253.323 66.0225 251.738 69.4143C249.413 74.3889 244.658 75.9717 242.545 68.7359C241.488 64.8919 241.383 58.3344 242.228 52.9075C243.073 47.3676 245.292 43.1844 249.096 43.5236C252.9 43.9758 254.591 49.0635 254.168 58.5605ZM191.51 87.5038C191.404 95.1919 190.347 101.975 187.917 104.011C184.43 106.837 179.781 104.689 180.732 99.0359C181.577 94.0613 185.593 88.9736 191.615 82.6423L191.51 87.5038ZM190.559 58.4475C190.453 62.1784 189.608 65.9094 188.128 69.4143C185.804 74.3889 180.943 75.9717 178.936 68.7359C177.562 63.8743 177.879 57.543 178.619 53.4728C179.464 48.2721 181.683 43.5236 185.487 43.5236C189.185 43.6366 191.087 47.9329 190.559 58.4475ZM154.211 58.4475C154.105 62.2915 153.365 66.0225 151.886 69.4143C149.456 74.3889 144.807 75.8587 142.693 68.7359C141.214 63.6482 141.742 56.5254 142.376 52.7945C143.327 47.1415 145.652 43.1844 149.244 43.5236C152.943 43.9758 154.739 49.0635 154.211 58.4475ZM320.63 63.6482C319.785 63.6482 319.257 64.6657 318.94 66.3616C317.777 72.2407 316.509 73.5975 314.924 73.5975C313.128 73.5975 311.543 70.6579 311.12 64.8919C310.803 60.2564 310.803 51.89 311.332 43.5236C311.437 41.8277 310.909 40.1318 306.683 38.4359C304.886 37.7575 302.139 36.6269 300.765 40.1318C298.124 46.8023 296.222 53.699 295.165 60.8217C295.165 61.0478 294.954 61.0478 294.848 60.5956C294.637 58.1083 294.109 53.4728 294.109 43.8628C294.109 41.9407 293.686 40.3579 291.784 39.1142C290.516 38.2098 286.712 36.74 285.233 38.5489C284.071 40.0187 282.697 43.9758 281.218 48.6113L279.21 54.9426V40.8101C279.21 39.3404 278.259 38.8881 277.942 38.7751C276.357 38.2098 274.772 37.8706 273.082 37.7575C271.814 37.7575 271.497 38.5489 271.497 39.6795C271.497 39.7926 271.285 53.1337 271.285 62.5176V63.7613C270.546 68.0575 268.221 73.8236 265.58 73.8236C263.044 73.8236 261.776 71.3363 261.776 60.2564C261.776 53.812 261.987 50.9855 262.093 46.237C262.198 43.5236 262.304 41.4885 262.304 41.0363C262.304 39.5665 259.979 38.8881 258.817 38.5489C257.761 38.3228 256.81 38.2098 256.07 38.2098C255.013 38.3228 254.274 39.0012 254.274 40.0187V41.6016C253.111 39.6795 251.315 38.0967 249.307 37.3053C245.398 36.0616 241.383 37.1922 238.319 41.7146C235.677 45.7848 234.092 50.5333 233.775 55.3948C233.352 59.6911 233.458 64.1004 234.198 67.8314C233.352 72.0146 231.556 73.7105 229.76 73.7105C227.118 73.7105 225.111 68.962 225.322 60.9348C225.533 55.621 226.484 51.89 227.541 46.4631C227.964 44.0889 227.647 42.9583 226.696 41.8277C225.85 40.8101 223.948 40.2448 221.307 40.9232C219.405 41.3754 216.658 41.9407 214.227 42.2799C214.227 42.2799 214.333 41.7146 214.544 40.584C215.178 34.7049 209.155 35.1572 207.254 37.0792C206.091 38.2098 205.352 39.5665 205.035 41.9407C204.612 45.6717 207.465 47.4807 207.465 47.4807C205.563 55.0557 202.499 62.0654 198.272 68.3967V66.3616C198.272 56.6385 198.378 48.9504 198.378 46.237C198.483 43.5236 198.589 41.4885 198.589 41.0363C198.589 40.0187 197.955 39.5665 196.793 39.1142C195.736 38.662 194.468 38.3228 193.2 38.2098C191.615 38.0967 190.559 39.0012 190.559 40.1318V41.6016C189.396 39.5665 187.6 38.0967 185.593 37.3053C181.683 36.0616 177.668 37.1922 174.604 41.7146C172.068 45.7848 170.483 50.5333 170.06 55.3948C169.637 59.9172 169.743 63.7613 170.271 67.1531C169.637 70.4318 167.841 73.8236 165.834 73.8236C163.298 73.8236 161.818 71.4493 161.818 60.2564C161.818 53.812 162.03 50.9855 162.135 46.237C162.241 43.5236 162.347 41.4885 162.347 41.0363C162.347 39.5665 160.022 38.8881 158.86 38.5489C157.697 38.2098 156.746 38.2098 156.007 38.2098C155.056 38.3228 154.316 39.2273 154.316 39.9057V41.4885C153.154 39.4534 151.358 37.9836 149.35 37.1922C145.441 35.9486 141.425 37.0792 138.361 41.6016C136.353 44.5411 134.663 47.9329 133.818 55.1687C133.606 57.0907 133.501 59.1258 133.501 61.0478C132.655 66.2486 129.168 72.3538 126.21 72.3538C124.519 72.3538 122.829 68.849 122.829 61.387C122.829 51.4378 123.463 37.1922 123.463 35.8355L127.9 35.7225C129.697 35.7225 131.387 35.7225 133.818 35.6094C135.086 35.4963 136.248 30.8609 134.98 30.2956C134.452 30.0695 130.331 29.8433 128.746 29.7303C127.372 29.7303 123.674 29.3911 123.674 29.3911C123.674 29.3911 123.991 19.8941 124.097 18.9896C124.202 18.0851 123.146 17.746 122.512 17.4068C121.138 16.8415 119.764 16.3892 118.391 16.1631C116.383 15.7109 115.432 16.1631 115.221 17.9721C114.904 20.7986 114.798 29.0519 114.798 29.0519C113.319 29.0519 108.141 28.7127 106.662 28.7127C105.288 28.7127 103.704 35.1572 105.711 35.2702L114.376 35.4963L114.27 54.7165V56.0732C112.896 63.9874 107.93 68.2837 107.93 68.2837C108.987 63.0829 106.768 59.1258 102.858 55.8471C101.379 54.6034 98.526 52.3422 95.2505 49.7419C95.2505 49.7419 97.1524 47.8198 98.7374 43.8628C99.8997 41.0363 100.005 37.8706 97.0468 37.1922C92.2919 35.9486 88.3824 39.6795 87.2201 43.7497C86.2691 46.3501 86.7974 49.4027 88.5937 51.4378L89.0163 52.0031C87.9597 54.1512 86.4804 57.2038 85.2125 59.465C81.7256 65.7963 79.1897 70.884 77.1821 70.884C75.5971 70.884 75.5971 65.7963 75.5971 60.9348C75.5971 56.7516 75.9141 50.5333 76.1254 44.0889C76.2311 41.9407 75.1745 40.6971 73.4839 39.6795C72.1102 38.662 70.631 37.9836 69.046 37.6445C67.1441 37.6445 61.7552 37.9836 56.5777 53.812C55.9438 55.8471 54.6758 59.465 54.6758 59.465L54.7815 40.471C54.7815 40.0187 54.5701 39.5665 54.0418 39.3404C52.4569 38.4359 50.6606 37.8706 48.8643 37.7575C47.9134 37.7575 47.385 38.2098 47.385 39.2273L47.1737 69.0751C47.1737 71.3363 47.2794 73.9366 47.4907 75.1803C47.702 76.3109 48.019 77.2154 48.4417 77.7807C48.8643 78.346 49.287 78.7982 50.1323 78.9113C50.8719 79.1374 54.9928 79.5896 55.2041 78.0068C55.5211 75.9717 55.5211 73.8236 57.6344 65.7963C60.9099 53.3598 65.2421 47.1415 67.3554 44.9934C67.6724 44.5411 68.095 44.5411 68.095 45.2195L67.4611 60.5956C66.9327 76.1978 69.5743 79.0243 73.3782 79.0243C76.2311 79.0243 80.352 75.9717 84.7898 68.1706L92.0806 55.1687L96.4128 59.3519C99.8997 62.8568 101.062 66.1355 100.217 69.3012C99.6883 71.6755 97.4694 74.2758 93.5599 71.7885C92.3976 71.1101 91.9749 70.5449 90.8126 69.7534C90.1786 69.3012 89.2277 69.1881 88.6994 69.6404C87.2201 70.771 86.3748 72.3538 85.9521 74.1628C85.5295 75.9717 87.2201 76.8762 88.9107 77.6676C90.39 78.346 93.6655 79.0243 95.6731 79.1374C103.704 79.4766 110.043 75.0672 114.481 63.6482C115.326 73.4844 118.708 79.0243 124.519 79.0243C128.429 79.0243 132.444 73.5975 134.135 68.2837C134.663 70.4318 135.403 72.3538 136.353 73.9366C140.897 81.6247 149.667 79.9288 154.105 73.3713C155.479 71.3363 155.69 70.6579 155.69 70.6579C156.007 75.1803 159.388 78.7982 163.615 79.0243C166.573 79.0243 169.637 77.5546 171.856 72.3538C172.068 72.9191 172.385 73.4844 172.702 73.9366C177.245 81.6247 186.015 79.9288 190.453 73.3713L190.981 72.5799L191.087 76.6501L187.072 80.6072C180.204 87.2777 175.026 92.3654 174.709 98.2445C174.181 105.819 179.887 108.533 184.219 108.985C188.657 109.211 192.778 106.837 195.208 102.88C197.321 99.6012 198.695 92.3654 198.589 85.2426L198.378 74.9542C204.823 66.9269 209.895 57.656 213.065 47.5937C213.065 47.5937 215.601 47.5937 218.242 47.4807C219.088 47.3676 219.405 47.5937 219.193 48.2721C218.982 49.0635 215.812 62.2915 218.771 71.1102C220.778 77.1023 225.322 79.0243 227.964 79.0243C231.028 79.0243 234.092 76.537 235.677 72.693L236.311 73.9366C240.854 81.6247 249.624 79.9288 254.062 73.3713C255.013 71.9016 255.647 70.6579 255.647 70.6579C256.598 76.9893 261.247 79.0243 263.889 79.0243C266.636 79.0243 269.278 77.7807 271.391 72.4669C271.497 74.8411 271.602 76.7631 271.814 77.4415C271.919 77.7807 272.765 78.346 273.293 78.459C275.829 79.4766 278.365 79.0243 279.316 78.7982C279.95 78.6852 280.478 78.1199 280.584 76.6501C280.795 72.806 280.689 66.3616 281.746 61.5001C283.542 53.3598 285.233 50.3072 286.078 48.7243C286.501 47.8198 287.029 47.7068 287.029 48.6113C287.029 50.4202 287.135 55.9601 287.875 63.196C288.403 68.6228 289.143 71.7885 289.671 72.806C291.256 75.7456 293.158 75.8587 294.637 75.8587C295.588 75.8587 297.701 75.5195 297.49 73.7105C297.384 72.8061 297.596 67.2661 299.392 59.3519C300.554 54.1512 302.456 49.5157 303.196 47.7068C303.513 47.1415 303.618 47.5937 303.618 47.7068C303.407 51.2116 303.09 62.9699 304.464 69.3012C306.26 77.8937 311.649 78.9113 313.551 78.9113C317.566 78.9113 320.736 75.6325 321.898 67.1531C322.215 65.231 321.792 63.6482 320.63 63.6482Z" fill="#262626"/>
</svg>
