<svg width="310" height="310" viewBox="0 0 310 310" fill="none" xmlns="http://www.w3.org/2000/svg">
<g clip-path="url(#clip0_1_2486)">
<path fill-rule="evenodd" clip-rule="evenodd" d="M293.117 9.25L295.348 13.0015H291.163L289.175 9.27325C289.33 9.2635 289.489 9.25675 289.657 9.253L289.913 9.25H293.117ZM294.862 9.25H295.086C297.381 9.25 298.437 9.8155 299.316 10.6653C299.901 11.2473 300.315 11.9789 300.513 12.7802L300.566 13.0015H297.094L294.862 9.25ZM287.612 9.53275L289.462 13.0015H284.433C284.585 12.2257 284.938 11.5034 285.457 10.907C285.975 10.3107 286.642 9.86133 287.389 9.604L287.612 9.53275ZM294.913 19.1583L291.505 17.1902C291.408 17.1342 291.298 17.1029 291.186 17.0991C291.074 17.0954 290.963 17.1194 290.862 17.169C290.762 17.2185 290.675 17.2921 290.61 17.3832C290.544 17.4743 290.502 17.5801 290.488 17.6912L290.482 17.7812V21.7172C290.482 21.8291 290.51 21.9392 290.563 22.0379C290.615 22.1365 290.692 22.2206 290.785 22.2829C290.878 22.3451 290.984 22.3835 291.096 22.3948C291.207 22.406 291.319 22.3897 291.423 22.3472L291.505 22.3075L294.913 20.3395C295.01 20.2835 295.092 20.2044 295.151 20.1094C295.21 20.0143 295.245 19.9061 295.253 19.7944C295.26 19.6827 295.24 19.5708 295.194 19.4688C295.148 19.3667 295.077 19.2776 294.988 19.2093L294.913 19.1583ZM284.264 14.5015H300.736L300.748 14.7715L300.75 14.9132V20.0875C300.75 22.3833 300.184 23.4392 299.334 24.3175C298.471 25.153 297.459 25.7095 295.337 25.7493L295.086 25.7515H289.913C287.618 25.7515 286.563 25.1853 285.683 24.3348C284.848 23.4723 284.293 22.4613 284.252 20.3372L284.25 20.0875V14.9132L284.252 14.7715L284.264 14.5015Z" fill="white"/>
</g>
<rect width="309" height="309" transform="translate(0.5 0.5)" fill="#EFEFEF"/>
<g clip-path="url(#clip1_1_2486)">
<rect width="309" height="309" transform="translate(0.5 0.5)" fill="#C4C4C4"/>
</g>
<defs>
<clipPath id="clip0_1_2486">
<rect width="18" height="18" fill="white" transform="translate(283.5 8.5)"/>
</clipPath>
<clipPath id="clip1_1_2486">
<rect width="309" height="309" fill="white" transform="translate(0.5 0.5)"/>
</clipPath>
</defs>
</svg>
